HIERARCHY
ROOT Hips
{
	OFFSET 0.000000 0.000000 0.000000
	CHANNELS 6 Xposition Yposition Zposition Zrotation Yrotation Xrotation 
	JOINT LHipJoint
	{
		OFFSET 0.000000 0.000000 0.000000
		CHANNELS 3 Zrotation Yrotation Xrotation
		JOINT LeftUpLeg
		{
			OFFSET 1.363060 -1.794630 0.839290
			CHANNELS 3 Zrotation Yrotation Xrotation
			JOINT LeftLeg
			{
				OFFSET 2.448110 -6.726130 0.000000
				CHANNELS 3 Zrotation Yrotation Xrotation
				JOINT LeftFoot
				{
					OFFSET 2.562200 -7.039590 0.000000
					CHANNELS 3 Zrotation Yrotation Xrotation
					JOINT LeftToeBase
					{
						OFFSET 0.157640 -0.433110 2.322550
						CHANNELS 3 Zrotation Yrotation Xrotation
						End Site
						{
							OFFSET 0.000000 0.000000 0.000000
						}
					}
				}
			}
		}
	}
	JOINT RHipJoint
	{
		OFFSET 0.000000 0.000000 0.000000
		CHANNELS 3 Zrotation Yrotation Xrotation
		JOINT RightUpLeg
		{
			OFFSET -1.305520 -1.794630 0.839290
			CHANNELS 3 Zrotation Yrotation Xrotation
			JOINT RightLeg
			{
				OFFSET -2.542530 -6.985550 0.000000
				CHANNELS 3 Zrotation Yrotation Xrotation
				JOINT RightFoot
				{
					OFFSET -2.568260 -7.056230 0.000000
					CHANNELS 3 Zrotation Yrotation Xrotation
					JOINT RightToeBase
					{
						OFFSET -0.164730 -0.452590 2.363150
						CHANNELS 3 Zrotation Yrotation Xrotation
						End Site
						{
							OFFSET 0.000000 0.000000 0.000000
						}
					}
				}
			}
		}
	}
	JOINT LowerBack
	{
		OFFSET 0.000000 0.000000 0.000000
		CHANNELS 3 Zrotation Yrotation Xrotation
		JOINT Spine
		{
			OFFSET 0.028270 2.035590 -0.193380
			CHANNELS 3 Zrotation Yrotation Xrotation
			JOINT Spine1
			{
				OFFSET 0.056720 2.048850 -0.042750
				CHANNELS 3 Zrotation Yrotation Xrotation
				JOINT Neck
				{
					OFFSET 0.000000 0.000000 0.000000
					CHANNELS 3 Zrotation Yrotation Xrotation
					JOINT Neck1
					{
						OFFSET -0.054170 1.746240 0.172020
						CHANNELS 3 Zrotation Yrotation Xrotation
						JOINT Head
						{
							OFFSET 0.104070 1.761360 -0.123970
							CHANNELS 3 Zrotation Yrotation Xrotation
							End Site
							{
								OFFSET 0.000000 0.000000 0.000000
							}
						}
					}
				}
				JOINT LeftShoulder
				{
					OFFSET 0.000000 0.000000 0.000000
					CHANNELS 3 Zrotation Yrotation Xrotation
					JOINT LeftArm
					{
						OFFSET 3.362410 1.200890 -0.311210
						CHANNELS 3 Zrotation Yrotation Xrotation
						JOINT LeftForeArm
						{
							OFFSET 4.983000 -0.000000 -0.000000
							CHANNELS 3 Zrotation Yrotation Xrotation
							JOINT LeftHand
							{
								OFFSET 3.483560 -0.000000 -0.000000
								CHANNELS 3 Zrotation Yrotation Xrotation
								JOINT LeftFingerBase
								{
									OFFSET 0.000000 0.000000 0.000000
									CHANNELS 3 Zrotation Yrotation Xrotation
									JOINT LeftHandIndex1
									{
										OFFSET 0.715260 -0.000000 -0.000000
										CHANNELS 3 Zrotation Yrotation Xrotation
										End Site
										{
											OFFSET 0.000000 0.000000 0.000000
										}
									}
								}
								JOINT LThumb
								{
									OFFSET 0.000000 0.000000 0.000000
									CHANNELS 3 Zrotation Yrotation Xrotation
									End Site
									{
										OFFSET 0.000000 0.000000 0.000000
									}
								}
							}
						}
					}
				}
				JOINT RightShoulder
				{
					OFFSET 0.000000 0.000000 0.000000
					CHANNELS 3 Zrotation Yrotation Xrotation
					JOINT RightArm
					{
						OFFSET -3.136600 1.374050 -0.404650
						CHANNELS 3 Zrotation Yrotation Xrotation
						JOINT RightForeArm
						{
							OFFSET -5.241900 -0.000000 -0.000000
							CHANNELS 3 Zrotation Yrotation Xrotation
							JOINT RightHand
							{
								OFFSET -3.444170 -0.000000 -0.000000
								CHANNELS 3 Zrotation Yrotation Xrotation
								JOINT RightFingerBase
								{
									OFFSET 0.000000 0.000000 0.000000
									CHANNELS 3 Zrotation Yrotation Xrotation
									JOINT RightHandIndex1
									{
										OFFSET -0.622530 -0.000000 -0.000000
										CHANNELS 3 Zrotation Yrotation Xrotation
										End Site
										{
											OFFSET 0.000000 0.000000 0.000000
										}
									}
								}
								JOINT RThumb
								{
									OFFSET 0.000000 0.000000 0.000000
									CHANNELS 3 Zrotation Yrotation Xrotation
									End Site
									{
										OFFSET 0.000000 0.000000 0.000000
									}
								}
							}
						}
					}
				}
			}
		}
	}
}
MOTION
Frames: 5
Frame Time: 0.008333
7.091047 17.668750 -12.532114 -3.278826 -26.795240 8.318945 0.414453 -0.729637 -0.994962 -10.499492 -2.286524 -20.637521 0.855059 7.768809 20.769339 -0.671046 7.900085 3.200918 0.001000 -0.206100 -0.566300 -0.388469 0.877828 -1.115132 23.043529 3.823948 -6.070817 -0.931612 -7.381996 19.630565 2.380195 -12.735727 -9.732488 -0.038200 -1.260900 3.466900 0.290801 -1.179011 6.426030 2.814228 -1.217725 -2.737634 3.921055 -0.785569 -2.482161 -16.307459 -13.993461 -8.698098 12.619249 -17.387475 6.555353 5.952800 -8.384500 8.714400 -1.406121 -1.468442 0.935126 -84.130544 -1.474433 58.280146 78.582445 -61.032531 -43.498241 -2.389041 1.740880 -47.967590 30.324976 44.510659 21.241500 -7.125000 0.000000 0.000000 -10.141700 74.956600 -7.178800 1.631500 2.054286 0.323492 71.144391 11.900393 76.616572 -75.366691 60.992609 -38.417429 -1.728063 -0.677369 5.531234 -24.828669 10.796423 -5.045100 7.125000 0.000000 0.000000 2.796100 -17.078000 1.853900 
7.082044 17.667167 -12.531322 -3.283603 -26.886119 8.302349 0.412003 -0.731560 -0.991676 -10.387335 -2.394235 -20.424958 0.854501 7.761872 20.769043 -0.607725 7.303211 2.961044 0.002400 -0.316100 -0.868400 -0.390060 0.877276 -1.116896 23.065763 3.876935 -6.020985 -0.932944 -7.388204 19.649277 2.361469 -12.667137 -9.767723 -0.043900 -1.352600 3.719600 0.391576 -1.212689 6.233625 2.821138 -1.261314 -2.730019 3.881401 -0.808507 -2.368461 -16.363981 -13.930038 -8.705412 12.521191 -17.291733 6.641338 5.941900 -8.349300 8.726300 -1.400363 -1.471661 0.936276 -84.187496 -1.340694 58.297189 78.348647 -61.052621 -43.313220 -2.382528 1.756117 -48.083939 30.558679 44.456120 21.381300 -7.125000 0.000000 0.000000 -9.697500 74.976500 -6.867100 1.632474 2.052314 0.315600 71.116036 11.553727 76.625883 -75.452218 61.012694 -38.485161 -1.733976 -0.669210 5.651946 -24.835809 10.867097 -5.073800 7.125000 0.000000 0.000000 2.797700 -17.004600 1.859400 
7.073832 17.665781 -12.529442 -3.309004 -26.969310 8.274635 0.408943 -0.731797 -0.986249 -10.253205 -2.544940 -20.118677 0.853414 7.752554 20.762786 -0.554656 6.778501 2.691964 0.004500 -0.431100 -1.184500 -0.391291 0.875153 -1.117124 23.118046 3.957701 -5.953909 -0.937705 -7.403746 19.692308 2.368807 -12.699737 -9.802648 -0.041000 -1.306700 3.593100 0.465943 -1.171614 6.158712 2.824233 -1.205739 -2.738126 3.851120 -0.780505 -2.341128 -16.266582 -13.944432 -8.814959 12.314044 -17.310056 6.761741 5.834200 -8.361300 8.764000 -1.392178 -1.482771 0.937033 -84.235503 -1.251982 58.471900 77.914930 -61.088559 -43.000321 -2.416754 1.729478 -47.965426 30.029108 45.588563 21.439400 -7.125000 0.000000 0.000000 -12.399100 75.854300 -9.022100 1.635231 2.049346 0.306053 71.088219 11.165500 76.411496 -75.498688 61.028205 -38.554227 -1.752946 -0.651514 5.775566 -24.948745 11.175628 -5.223100 7.125000 0.000000 0.000000 2.747100 -16.668500 1.845800 
7.068687 17.663308 -12.523506 -3.314200 -27.003702 8.292566 0.405194 -0.731337 -0.982696 -10.156626 -2.848424 -19.825671 0.848587 7.740944 20.734883 -0.547996 6.672894 2.519475 0.005800 -0.492800 -1.354200 -0.392600 0.873290 -1.115711 23.109478 3.798932 -6.038266 -0.941530 -7.415872 19.730683 2.316719 -12.492019 -9.757901 -0.042000 -1.323000 3.638000 0.567408 -1.221680 5.943527 2.844818 -1.272238 -2.764573 3.840552 -0.813448 -2.280195 -16.384232 -13.875698 -8.726474 12.257460 -17.204861 6.772147 5.855200 -8.327100 8.736400 -1.380169 -1.486392 0.941253 -84.362185 -1.078924 58.447335 77.381490 -61.108565 -42.546550 -2.386507 1.759161 -47.095338 29.546730 45.078923 20.886700 -7.125000 0.000000 0.000000 -12.322400 75.228700 -8.803300 1.637596 2.049955 0.295897 71.027666 10.730750 76.379312 -75.593466 61.047045 -38.622035 -1.748934 -0.642130 5.778815 -24.753748 11.197162 -5.178300 7.125000 0.000000 0.000000 2.880900 -16.679700 1.935300 
7.061761 17.660933 -12.518361 -3.336674 -27.106356 8.284318 0.402107 -0.729906 -0.978830 -10.050159 -3.044575 -19.493434 0.840534 7.717132 20.676578 -0.532123 6.482798 2.319141 0.007000 -0.541100 -1.486800 -0.393517 0.871418 -1.116033 23.138014 3.849132 -5.994510 -0.944961 -7.428009 19.765072 2.303111 -12.441963 -9.781131 -0.042900 -1.336200 3.674500 0.659076 -1.207871 5.779850 2.844094 -1.253795 -2.767444 3.792331 -0.804948 -2.203313 -16.377670 -13.855095 -8.740199 12.160856 -17.172758 6.809317 5.821700 -8.318100 8.734600 -1.371884 -1.491227 0.943654 -84.410176 -0.969722 58.526742 76.901170 -61.124480 -42.157399 -2.374835 1.770848 -46.414687 29.031330 45.097410 20.518400 -7.125000 0.000000 0.000000 -13.179700 75.079600 -9.378700 1.636943 2.048150 0.289482 71.025843 10.342471 76.218074 -75.639132 61.064543 -38.667921 -1.751643 -0.632503 5.784658 -24.671618 11.315014 -5.201500 7.125000 0.000000 0.000000 2.945700 -16.571700 1.985800 
